<?xml version="1.0" encoding="UTF-8"?> <svg xmlns="http://www.w3.org/2000/svg" width="47" height="47" viewBox="0 0 47 47" fill="none"><path d="M20.5155 0.138174C16.2743 0.688979 12.3911 2.31385 8.99444 4.93936C7.92037 5.77475 6.09354 7.57404 5.20307 8.67565C2.66936 11.8152 0.989409 15.524 0.273363 19.5632C0.0163202 20.9953 -0.0846608 24.4379 0.0805808 26.0077C0.475324 29.6705 1.75136 33.2599 3.73425 36.3077C4.6339 37.6847 5.42339 38.667 6.65352 39.9247C10.5 43.8721 15.3562 46.2589 20.8827 46.9015C22.1128 47.0484 25.1055 47.0209 26.4366 46.8648C33.3033 46.0111 39.4356 42.1646 43.2637 36.3077C45.1915 33.3609 46.4217 29.9735 46.8623 26.4391C47.0459 24.9519 47.0459 22.0602 46.8623 20.5639C46.0177 13.7522 42.1805 7.60158 36.397 3.80103C33.3768 1.81813 30.0168 0.587998 26.4366 0.138174C25.0412 -0.0270678 21.8374 -0.0270678 20.5155 0.138174ZM33.7807 14.3765C34.1387 14.5876 34.3315 15.0558 34.3315 15.6892C34.3315 17.4702 31.8988 32.5622 31.3847 33.9209C31.1644 34.5084 30.843 34.9215 30.4483 35.1327C30.0995 35.3071 29.3742 35.252 28.8051 34.995C28.447 34.8389 21.2958 30.0561 20.745 29.6063C20.2951 29.239 20.0105 28.8168 20.0105 28.5138C20.0105 27.9997 20.4971 27.4306 22.7003 25.3742C25.7665 22.51 28.089 20.1967 28.1533 19.9304C28.2267 19.655 28.089 19.4255 27.8228 19.3888C27.529 19.3429 26.8589 19.7652 21.7089 23.2077C19.1843 24.8969 16.8526 26.4116 16.5221 26.5676C15.9897 26.8247 15.8336 26.8522 15.0992 26.8522C14.1537 26.843 13.4284 26.6778 11.06 25.9159C9.78393 25.5028 9.45345 25.3559 9.20559 25.108C9.04034 24.9428 8.90264 24.7316 8.90264 24.6398C8.90264 24.5572 9.07706 24.3093 9.29739 24.0982C9.61869 23.7953 10.1603 23.5199 12.2993 22.5927C27.933 15.8178 31.8345 14.2388 33.0279 14.2296C33.3309 14.2296 33.6246 14.2939 33.7807 14.3765Z" fill="white"></path></svg> 