<?xml version="1.0" encoding="UTF-8"?> <svg xmlns="http://www.w3.org/2000/svg" xmlns:xlink="http://www.w3.org/1999/xlink" width="400" zoomAndPan="magnify" viewBox="0 0 300 74.999997" height="100" preserveAspectRatio="xMidYMid meet" version="1.0"><defs><g></g><clipPath id="6ad61b0f88"><rect x="0" width="126" y="0" height="75"></rect></clipPath><clipPath id="508403b731"><rect x="0" width="174" y="0" height="60"></rect></clipPath></defs><g transform="matrix(1, 0, 0, 1, 0, -0.000000000000001893)"><g clip-path="url(#6ad61b0f88)"><g fill="#ffffff" fill-opacity="1"><g transform="translate(-5.985404, 69.07063)"><g><path d="M 33.234375 0.96875 C 24.921875 0.96875 18.378906 -1.328125 13.609375 -5.921875 C 8.835938 -10.515625 6.453125 -17.378906 6.453125 -26.515625 L 6.453125 -61.859375 L 20.0625 -61.859375 L 20.0625 -26.859375 C 20.0625 -21.796875 21.238281 -17.984375 23.59375 -15.421875 C 25.945312 -12.859375 29.21875 -11.578125 33.40625 -11.578125 C 37.59375 -11.578125 40.863281 -12.8125 43.21875 -15.28125 C 45.570312 -17.757812 46.75 -21.472656 46.75 -26.421875 L 46.75 -61.859375 L 60.359375 -61.859375 L 60.359375 -26.953125 C 60.359375 -22.242188 59.722656 -18.148438 58.453125 -14.671875 C 57.191406 -11.191406 55.378906 -8.285156 53.015625 -5.953125 C 50.660156 -3.628906 47.804688 -1.894531 44.453125 -0.75 C 41.097656 0.394531 37.359375 0.96875 33.234375 0.96875 Z M 33.234375 0.96875 "></path></g></g></g><g fill="#ffffff" fill-opacity="1"><g transform="translate(60.829778, 69.07063)"><g><path d="M 7.421875 -61.859375 L 21.03125 -61.859375 L 21.03125 -34.8125 L 45.953125 -61.859375 L 62.65625 -61.859375 L 37.375 -35.609375 L 63.71875 0 L 47.375 0 L 28.1875 -26.328125 L 21.03125 -18.90625 L 21.03125 0 L 7.421875 0 Z M 7.421875 -61.859375 "></path></g></g></g></g></g><g transform="matrix(1, 0, 0, 1, 126, 7)"><g clip-path="url(#508403b731)"><g fill="#ffffff" fill-opacity="1"><g transform="translate(0.552769, 26.176521)"><g><path d="M 8.40625 -18.28125 L 12.09375 -18.28125 L 19.875 0 L 15.6875 0 L 14.03125 -4.078125 L 6.359375 -4.078125 L 4.6875 0 L 0.625 0 Z M 12.609375 -7.59375 L 10.1875 -13.484375 L 7.78125 -7.59375 Z M 12.609375 -7.59375 "></path></g></g></g><g fill="#ffffff" fill-opacity="1"><g transform="translate(21.037094, 26.176521)"><g><path d="M 2.171875 -18.15625 L 10.484375 -18.15625 C 12.773438 -18.15625 14.535156 -17.539062 15.765625 -16.3125 C 16.804688 -15.28125 17.328125 -13.898438 17.328125 -12.171875 L 17.328125 -12.109375 C 17.328125 -10.640625 16.96875 -9.441406 16.25 -8.515625 C 15.53125 -7.597656 14.59375 -6.921875 13.4375 -6.484375 L 17.875 0 L 13.203125 0 L 9.3125 -5.8125 L 6.171875 -5.8125 L 6.171875 0 L 2.171875 0 Z M 10.21875 -9.34375 C 11.207031 -9.34375 11.960938 -9.570312 12.484375 -10.03125 C 13.015625 -10.5 13.28125 -11.125 13.28125 -11.90625 L 13.28125 -11.953125 C 13.28125 -12.816406 13.003906 -13.460938 12.453125 -13.890625 C 11.898438 -14.328125 11.128906 -14.546875 10.140625 -14.546875 L 6.171875 -14.546875 L 6.171875 -9.34375 Z M 10.21875 -9.34375 "></path></g></g></g><g fill="#ffffff" fill-opacity="1"><g transform="translate(39.784139, 26.176521)"><g><path d="M 10.6875 0.3125 C 9.351562 0.3125 8.113281 0.0703125 6.96875 -0.40625 C 5.832031 -0.894531 4.847656 -1.554688 4.015625 -2.390625 C 3.191406 -3.234375 2.546875 -4.222656 2.078125 -5.359375 C 1.609375 -6.503906 1.375 -7.726562 1.375 -9.03125 L 1.375 -9.078125 C 1.375 -10.378906 1.609375 -11.59375 2.078125 -12.71875 C 2.546875 -13.851562 3.191406 -14.847656 4.015625 -15.703125 C 4.847656 -16.554688 5.84375 -17.226562 7 -17.71875 C 8.15625 -18.21875 9.4375 -18.46875 10.84375 -18.46875 C 11.6875 -18.46875 12.457031 -18.394531 13.15625 -18.25 C 13.863281 -18.113281 14.5 -17.925781 15.0625 -17.6875 C 15.632812 -17.445312 16.160156 -17.148438 16.640625 -16.796875 C 17.128906 -16.453125 17.582031 -16.078125 18 -15.671875 L 15.453125 -12.734375 C 14.742188 -13.367188 14.019531 -13.867188 13.28125 -14.234375 C 12.550781 -14.597656 11.726562 -14.78125 10.8125 -14.78125 C 10.050781 -14.78125 9.347656 -14.632812 8.703125 -14.34375 C 8.054688 -14.050781 7.5 -13.644531 7.03125 -13.125 C 6.5625 -12.601562 6.195312 -12 5.9375 -11.3125 C 5.675781 -10.632812 5.546875 -9.90625 5.546875 -9.125 L 5.546875 -9.078125 C 5.546875 -8.296875 5.675781 -7.5625 5.9375 -6.875 C 6.195312 -6.1875 6.554688 -5.582031 7.015625 -5.0625 C 7.472656 -4.539062 8.023438 -4.128906 8.671875 -3.828125 C 9.328125 -3.523438 10.039062 -3.375 10.8125 -3.375 C 11.851562 -3.375 12.734375 -3.5625 13.453125 -3.9375 C 14.171875 -4.320312 14.882812 -4.84375 15.59375 -5.5 L 18.125 -2.9375 C 17.664062 -2.425781 17.179688 -1.972656 16.671875 -1.578125 C 16.171875 -1.179688 15.625 -0.835938 15.03125 -0.546875 C 14.4375 -0.265625 13.785156 -0.0507812 13.078125 0.09375 C 12.367188 0.238281 11.570312 0.3125 10.6875 0.3125 Z M 10.6875 0.3125 "></path></g></g></g><g fill="#ffffff" fill-opacity="1"><g transform="translate(58.920126, 26.176521)"><g><path d="M 2.171875 -18.15625 L 6.171875 -18.15625 L 6.171875 -10.96875 L 13.546875 -10.96875 L 13.546875 -18.15625 L 17.53125 -18.15625 L 17.53125 0 L 13.546875 0 L 13.546875 -7.28125 L 6.171875 -7.28125 L 6.171875 0 L 2.171875 0 Z M 2.171875 -18.15625 "></path></g></g></g><g fill="#ffffff" fill-opacity="1"><g transform="translate(78.626565, 26.176521)"><g><path d="M 2.359375 -18.15625 L 6.359375 -18.15625 L 6.359375 0 L 2.359375 0 Z M 2.359375 -18.15625 "></path></g></g></g><g fill="#ffffff" fill-opacity="1"><g transform="translate(87.338882, 26.176521)"><g><path d="M 6.40625 -14.46875 L 0.875 -14.46875 L 0.875 -18.15625 L 15.921875 -18.15625 L 15.921875 -14.46875 L 10.40625 -14.46875 L 10.40625 0 L 6.40625 0 Z M 6.40625 -14.46875 "></path></g></g></g><g fill="#ffffff" fill-opacity="1"><g transform="translate(104.141212, 26.176521)"><g><path d="M 2.171875 -18.15625 L 15.875 -18.15625 L 15.875 -14.609375 L 6.140625 -14.609375 L 6.140625 -10.921875 L 14.703125 -10.921875 L 14.703125 -7.359375 L 6.140625 -7.359375 L 6.140625 -3.546875 L 16 -3.546875 L 16 0 L 2.171875 0 Z M 2.171875 -18.15625 "></path></g></g></g><g fill="#ffffff" fill-opacity="1"><g transform="translate(121.513993, 26.176521)"><g><path d="M 10.6875 0.3125 C 9.351562 0.3125 8.113281 0.0703125 6.96875 -0.40625 C 5.832031 -0.894531 4.847656 -1.554688 4.015625 -2.390625 C 3.191406 -3.234375 2.546875 -4.222656 2.078125 -5.359375 C 1.609375 -6.503906 1.375 -7.726562 1.375 -9.03125 L 1.375 -9.078125 C 1.375 -10.378906 1.609375 -11.59375 2.078125 -12.71875 C 2.546875 -13.851562 3.191406 -14.847656 4.015625 -15.703125 C 4.847656 -16.554688 5.84375 -17.226562 7 -17.71875 C 8.15625 -18.21875 9.4375 -18.46875 10.84375 -18.46875 C 11.6875 -18.46875 12.457031 -18.394531 13.15625 -18.25 C 13.863281 -18.113281 14.5 -17.925781 15.0625 -17.6875 C 15.632812 -17.445312 16.160156 -17.148438 16.640625 -16.796875 C 17.128906 -16.453125 17.582031 -16.078125 18 -15.671875 L 15.453125 -12.734375 C 14.742188 -13.367188 14.019531 -13.867188 13.28125 -14.234375 C 12.550781 -14.597656 11.726562 -14.78125 10.8125 -14.78125 C 10.050781 -14.78125 9.347656 -14.632812 8.703125 -14.34375 C 8.054688 -14.050781 7.5 -13.644531 7.03125 -13.125 C 6.5625 -12.601562 6.195312 -12 5.9375 -11.3125 C 5.675781 -10.632812 5.546875 -9.90625 5.546875 -9.125 L 5.546875 -9.078125 C 5.546875 -8.296875 5.675781 -7.5625 5.9375 -6.875 C 6.195312 -6.1875 6.554688 -5.582031 7.015625 -5.0625 C 7.472656 -4.539062 8.023438 -4.128906 8.671875 -3.828125 C 9.328125 -3.523438 10.039062 -3.375 10.8125 -3.375 C 11.851562 -3.375 12.734375 -3.5625 13.453125 -3.9375 C 14.171875 -4.320312 14.882812 -4.84375 15.59375 -5.5 L 18.125 -2.9375 C 17.664062 -2.425781 17.179688 -1.972656 16.671875 -1.578125 C 16.171875 -1.179688 15.625 -0.835938 15.03125 -0.546875 C 14.4375 -0.265625 13.785156 -0.0507812 13.078125 0.09375 C 12.367188 0.238281 11.570312 0.3125 10.6875 0.3125 Z M 10.6875 0.3125 "></path></g></g></g><g fill="#ffffff" fill-opacity="1"><g transform="translate(140.64998, 26.176521)"><g><path d="M 6.40625 -14.46875 L 0.875 -14.46875 L 0.875 -18.15625 L 15.921875 -18.15625 L 15.921875 -14.46875 L 10.40625 -14.46875 L 10.40625 0 L 6.40625 0 Z M 6.40625 -14.46875 "></path></g></g></g><g fill="#ffffff" fill-opacity="1"><g transform="translate(157.45231, 26.176521)"><g><path d="M 8.640625 0.265625 C 7.253906 0.265625 5.894531 0.0234375 4.5625 -0.453125 C 3.226562 -0.929688 2.019531 -1.660156 0.9375 -2.640625 L 3.296875 -5.46875 C 4.128906 -4.800781 4.976562 -4.265625 5.84375 -3.859375 C 6.71875 -3.460938 7.675781 -3.265625 8.71875 -3.265625 C 9.539062 -3.265625 10.179688 -3.414062 10.640625 -3.71875 C 11.097656 -4.019531 11.328125 -4.441406 11.328125 -4.984375 L 11.328125 -5.03125 C 11.328125 -5.289062 11.28125 -5.519531 11.1875 -5.71875 C 11.09375 -5.914062 10.910156 -6.097656 10.640625 -6.265625 C 10.378906 -6.441406 10.007812 -6.617188 9.53125 -6.796875 C 9.050781 -6.972656 8.429688 -7.15625 7.671875 -7.34375 C 6.753906 -7.5625 5.925781 -7.804688 5.1875 -8.078125 C 4.445312 -8.359375 3.816406 -8.703125 3.296875 -9.109375 C 2.773438 -9.523438 2.367188 -10.035156 2.078125 -10.640625 C 1.796875 -11.242188 1.65625 -11.992188 1.65625 -12.890625 L 1.65625 -12.9375 C 1.65625 -13.769531 1.8125 -14.519531 2.125 -15.1875 C 2.4375 -15.851562 2.875 -16.425781 3.4375 -16.90625 C 4 -17.394531 4.664062 -17.769531 5.4375 -18.03125 C 6.21875 -18.289062 7.078125 -18.421875 8.015625 -18.421875 C 9.347656 -18.421875 10.570312 -18.21875 11.6875 -17.8125 C 12.800781 -17.414062 13.828125 -16.847656 14.765625 -16.109375 L 12.6875 -13.09375 C 11.875 -13.644531 11.078125 -14.082031 10.296875 -14.40625 C 9.515625 -14.726562 8.738281 -14.890625 7.96875 -14.890625 C 7.1875 -14.890625 6.597656 -14.738281 6.203125 -14.4375 C 5.816406 -14.132812 5.625 -13.757812 5.625 -13.3125 L 5.625 -13.25 C 5.625 -12.957031 5.679688 -12.703125 5.796875 -12.484375 C 5.910156 -12.273438 6.113281 -12.082031 6.40625 -11.90625 C 6.695312 -11.726562 7.097656 -11.5625 7.609375 -11.40625 C 8.117188 -11.25 8.765625 -11.070312 9.546875 -10.875 C 10.460938 -10.625 11.28125 -10.347656 12 -10.046875 C 12.71875 -9.742188 13.320312 -9.378906 13.8125 -8.953125 C 14.300781 -8.535156 14.671875 -8.039062 14.921875 -7.46875 C 15.171875 -6.894531 15.296875 -6.210938 15.296875 -5.421875 L 15.296875 -5.375 C 15.296875 -4.46875 15.128906 -3.664062 14.796875 -2.96875 C 14.472656 -2.269531 14.015625 -1.679688 13.421875 -1.203125 C 12.835938 -0.734375 12.140625 -0.367188 11.328125 -0.109375 C 10.515625 0.140625 9.617188 0.265625 8.640625 0.265625 Z M 8.640625 0.265625 "></path></g></g></g><g fill="#ffffff" fill-opacity="1"><g transform="translate(0.552769, 52.837952)"><g><path d="M 10.921875 0.3125 C 9.503906 0.3125 8.210938 0.078125 7.046875 -0.390625 C 5.878906 -0.859375 4.875 -1.503906 4.03125 -2.328125 C 3.195312 -3.160156 2.546875 -4.144531 2.078125 -5.28125 C 1.609375 -6.425781 1.375 -7.675781 1.375 -9.03125 L 1.375 -9.078125 C 1.375 -10.378906 1.609375 -11.59375 2.078125 -12.71875 C 2.554688 -13.851562 3.21875 -14.847656 4.0625 -15.703125 C 4.914062 -16.554688 5.921875 -17.226562 7.078125 -17.71875 C 8.234375 -18.21875 9.503906 -18.46875 10.890625 -18.46875 C 11.703125 -18.46875 12.441406 -18.410156 13.109375 -18.296875 C 13.773438 -18.179688 14.394531 -18.019531 14.96875 -17.8125 C 15.539062 -17.613281 16.078125 -17.359375 16.578125 -17.046875 C 17.078125 -16.734375 17.5625 -16.378906 18.03125 -15.984375 L 15.515625 -12.9375 C 15.160156 -13.238281 14.8125 -13.5 14.46875 -13.71875 C 14.125 -13.945312 13.765625 -14.140625 13.390625 -14.296875 C 13.023438 -14.453125 12.625 -14.570312 12.1875 -14.65625 C 11.757812 -14.738281 11.285156 -14.78125 10.765625 -14.78125 C 10.035156 -14.78125 9.351562 -14.628906 8.71875 -14.328125 C 8.09375 -14.023438 7.539062 -13.617188 7.0625 -13.109375 C 6.59375 -12.597656 6.222656 -12 5.953125 -11.3125 C 5.679688 -10.632812 5.546875 -9.90625 5.546875 -9.125 L 5.546875 -9.078125 C 5.546875 -8.242188 5.679688 -7.476562 5.953125 -6.78125 C 6.222656 -6.082031 6.601562 -5.472656 7.09375 -4.953125 C 7.582031 -4.429688 8.160156 -4.023438 8.828125 -3.734375 C 9.492188 -3.453125 10.234375 -3.3125 11.046875 -3.3125 C 12.535156 -3.3125 13.789062 -3.675781 14.8125 -4.40625 L 14.8125 -7 L 10.796875 -7 L 10.796875 -10.453125 L 18.671875 -10.453125 L 18.671875 -2.5625 C 17.742188 -1.769531 16.632812 -1.09375 15.34375 -0.53125 C 14.050781 0.03125 12.578125 0.3125 10.921875 0.3125 Z M 10.921875 0.3125 "></path></g></g></g><g fill="#ffffff" fill-opacity="1"><g transform="translate(20.881513, 52.837952)"><g><path d="M 2.171875 -18.15625 L 6.171875 -18.15625 L 6.171875 -3.625 L 15.21875 -3.625 L 15.21875 0 L 2.171875 0 Z M 2.171875 -18.15625 "></path></g></g></g><g fill="#ffffff" fill-opacity="1"><g transform="translate(36.931882, 52.837952)"><g><path d="M 11 0.3125 C 9.59375 0.3125 8.300781 0.0664062 7.125 -0.421875 C 5.957031 -0.921875 4.941406 -1.585938 4.078125 -2.421875 C 3.222656 -3.265625 2.554688 -4.25 2.078125 -5.375 C 1.609375 -6.507812 1.375 -7.726562 1.375 -9.03125 L 1.375 -9.078125 C 1.375 -10.378906 1.613281 -11.59375 2.09375 -12.71875 C 2.582031 -13.851562 3.253906 -14.847656 4.109375 -15.703125 C 4.960938 -16.554688 5.984375 -17.226562 7.171875 -17.71875 C 8.359375 -18.21875 9.648438 -18.46875 11.046875 -18.46875 C 12.453125 -18.46875 13.738281 -18.21875 14.90625 -17.71875 C 16.082031 -17.226562 17.097656 -16.5625 17.953125 -15.71875 C 18.816406 -14.882812 19.484375 -13.898438 19.953125 -12.765625 C 20.429688 -11.640625 20.671875 -10.425781 20.671875 -9.125 L 20.671875 -9.078125 C 20.671875 -7.785156 20.425781 -6.570312 19.9375 -5.4375 C 19.457031 -4.300781 18.789062 -3.304688 17.9375 -2.453125 C 17.082031 -1.597656 16.0625 -0.921875 14.875 -0.421875 C 13.6875 0.0664062 12.394531 0.3125 11 0.3125 Z M 11.046875 -3.375 C 11.847656 -3.375 12.582031 -3.519531 13.25 -3.8125 C 13.925781 -4.101562 14.5 -4.507812 14.96875 -5.03125 C 15.445312 -5.550781 15.820312 -6.148438 16.09375 -6.828125 C 16.363281 -7.515625 16.5 -8.25 16.5 -9.03125 L 16.5 -9.078125 C 16.5 -9.859375 16.363281 -10.59375 16.09375 -11.28125 C 15.820312 -11.976562 15.441406 -12.582031 14.953125 -13.09375 C 14.460938 -13.613281 13.878906 -14.023438 13.203125 -14.328125 C 12.523438 -14.628906 11.789062 -14.78125 11 -14.78125 C 10.1875 -14.78125 9.445312 -14.632812 8.78125 -14.34375 C 8.113281 -14.050781 7.539062 -13.644531 7.0625 -13.125 C 6.59375 -12.601562 6.222656 -12 5.953125 -11.3125 C 5.679688 -10.632812 5.546875 -9.90625 5.546875 -9.125 L 5.546875 -9.078125 C 5.546875 -8.296875 5.679688 -7.5625 5.953125 -6.875 C 6.222656 -6.1875 6.601562 -5.582031 7.09375 -5.0625 C 7.582031 -4.539062 8.160156 -4.128906 8.828125 -3.828125 C 9.492188 -3.523438 10.234375 -3.375 11.046875 -3.375 Z M 11.046875 -3.375 "></path></g></g></g><g fill="#ffffff" fill-opacity="1"><g transform="translate(58.971979, 52.837952)"><g><path d="M 2.171875 -18.15625 L 10.609375 -18.15625 C 12.703125 -18.15625 14.285156 -17.617188 15.359375 -16.546875 C 16.179688 -15.710938 16.59375 -14.6875 16.59375 -13.46875 L 16.59375 -13.40625 C 16.59375 -12.882812 16.53125 -12.425781 16.40625 -12.03125 C 16.28125 -11.632812 16.109375 -11.273438 15.890625 -10.953125 C 15.671875 -10.640625 15.414062 -10.359375 15.125 -10.109375 C 14.84375 -9.867188 14.539062 -9.664062 14.21875 -9.5 C 15.269531 -9.09375 16.097656 -8.546875 16.703125 -7.859375 C 17.304688 -7.179688 17.609375 -6.238281 17.609375 -5.03125 L 17.609375 -4.984375 C 17.609375 -4.148438 17.445312 -3.421875 17.125 -2.796875 C 16.8125 -2.179688 16.351562 -1.664062 15.75 -1.25 C 15.15625 -0.832031 14.4375 -0.519531 13.59375 -0.3125 C 12.757812 -0.101562 11.832031 0 10.8125 0 L 2.171875 0 Z M 12.625 -12.78125 C 12.625 -13.382812 12.398438 -13.847656 11.953125 -14.171875 C 11.503906 -14.492188 10.859375 -14.65625 10.015625 -14.65625 L 6.0625 -14.65625 L 6.0625 -10.8125 L 9.75 -10.8125 C 10.632812 -10.8125 11.332031 -10.960938 11.84375 -11.265625 C 12.363281 -11.566406 12.625 -12.054688 12.625 -12.734375 Z M 13.640625 -5.53125 C 13.640625 -6.132812 13.40625 -6.613281 12.9375 -6.96875 C 12.476562 -7.320312 11.726562 -7.5 10.6875 -7.5 L 6.0625 -7.5 L 6.0625 -3.5 L 10.8125 -3.5 C 11.695312 -3.5 12.390625 -3.660156 12.890625 -3.984375 C 13.390625 -4.304688 13.640625 -4.800781 13.640625 -5.46875 Z M 13.640625 -5.53125 "></path></g></g></g><g fill="#ffffff" fill-opacity="1"><g transform="translate(77.693097, 52.837952)"><g><path d="M 8.40625 -18.28125 L 12.09375 -18.28125 L 19.875 0 L 15.6875 0 L 14.03125 -4.078125 L 6.359375 -4.078125 L 4.6875 0 L 0.625 0 Z M 12.609375 -7.59375 L 10.1875 -13.484375 L 7.78125 -7.59375 Z M 12.609375 -7.59375 "></path></g></g></g><g fill="#ffffff" fill-opacity="1"><g transform="translate(98.177422, 52.837952)"><g><path d="M 2.171875 -18.15625 L 6.171875 -18.15625 L 6.171875 -3.625 L 15.21875 -3.625 L 15.21875 0 L 2.171875 0 Z M 2.171875 -18.15625 "></path></g></g></g></g></g></svg> 