<?xml version="1.0" encoding="UTF-8"?> <svg xmlns="http://www.w3.org/2000/svg" width="47" height="47" viewBox="0 0 47 47" fill="none"><rect width="47" height="47" rx="10" fill="#EDEDED"></rect><path d="M32.0918 13.4473C32.4953 13.0442 33.1494 13.044 33.5527 13.4473C33.956 13.8506 33.9558 14.5047 33.5527 14.9082L24.9609 23.5L33.5527 32.0918C33.9558 32.4953 33.956 33.1494 33.5527 33.5527C33.1494 33.956 32.4953 33.9558 32.0918 33.5527L23.5 24.9609L14.9082 33.5527C14.5047 33.9558 13.8506 33.956 13.4473 33.5527C13.044 33.1494 13.0442 32.4953 13.4473 32.0918L22.0391 23.5L13.4473 14.9082C13.0442 14.5047 13.044 13.8506 13.4473 13.4473C13.8506 13.044 14.5047 13.0442 14.9082 13.4473L23.5 22.0391L32.0918 13.4473Z" fill="#1F1F1F" stroke="#1F1E22" stroke-width="0.4"></path></svg> 