<?xml version="1.0" encoding="UTF-8"?> <svg xmlns="http://www.w3.org/2000/svg" width="30" height="30" viewBox="0 0 30 30" fill="none"><path d="M11.1786 0.0709294C11.0036 0.163903 10.938 0.322505 10.8341 0.891284C10.5989 2.17651 10.588 3.87191 10.8012 5.29385C10.8888 5.87357 11.4302 8.26901 11.6052 8.81591C11.6216 8.87607 11.2388 8.47683 10.752 7.92993C9.54884 6.57361 8.59176 5.73684 7.32841 4.93837C6.71588 4.55553 5.59473 3.99222 5.08064 3.82268C4.73609 3.70237 4.67046 3.6969 4.51733 3.76252C4.32592 3.83909 4.18372 4.06332 4.18372 4.27661C4.18372 4.45162 4.52827 5.43058 4.76344 5.92279C4.96579 6.36031 5.58379 7.2627 6.17445 8.00102C7.16434 9.22609 8.38394 10.4347 9.50509 11.2988C9.79494 11.5231 10.0246 11.72 10.0192 11.7309C10.0082 11.7418 9.88792 11.709 9.75666 11.6653C8.90349 11.3645 5.76974 10.4019 5.35956 10.3199C4.27669 10.0957 2.82193 10.0683 1.37811 10.2488C0.596037 10.3418 0.399152 10.4183 0.306179 10.648C0.163984 10.9816 0.256958 11.1512 0.809329 11.6161C2.07268 12.677 3.81183 13.6122 5.52363 14.1482C5.82443 14.2412 6.61197 14.449 7.27372 14.6076L8.47691 14.892L7.62921 15.067C7.16434 15.16 6.64478 15.2584 6.48071 15.2748C5.42519 15.4061 3.69698 15.9694 2.52114 16.5765C1.38358 17.1562 0.147577 18.0859 0.0272583 18.4469C-0.0657152 18.7203 0.0874176 19.0211 0.360869 19.1141C1.35076 19.4368 3.1282 19.5461 4.56655 19.3766C5.80802 19.2344 6.36039 19.0867 8.88709 18.25L9.35195 18.0969L9.13319 18.2828C9.01287 18.3867 8.59723 18.7258 8.20346 19.0375C6.39868 20.4595 4.97673 22.1275 4.17825 23.7518C3.72979 24.6706 3.56025 25.2121 3.63682 25.4472C3.77354 25.8683 4.11809 25.8957 5.03689 25.5566C7.12059 24.7909 8.78864 23.5659 10.8559 21.2744C11.2606 20.8259 11.5997 20.4595 11.6107 20.4704C11.6161 20.4759 11.4685 20.897 11.288 21.4056C11.102 21.9142 10.8942 22.5158 10.8286 22.7401C10.763 22.9643 10.6426 23.369 10.5606 23.6424C10.1778 24.9277 9.98089 26.716 10.0848 27.963C10.2106 29.4232 10.3364 29.7404 10.8177 29.7404C11.02 29.7404 11.0692 29.7131 11.3372 29.4287C12.0208 28.7068 12.6552 27.7497 13.1857 26.6504C13.8037 25.3597 14.1155 24.3425 14.5257 22.2643C14.6241 21.7447 14.7225 21.34 14.7444 21.3619C14.7608 21.3837 14.8429 21.8322 14.9249 22.3572C15.1491 23.8175 15.2148 24.1511 15.4226 24.873C15.8109 26.2129 16.3468 27.4051 17.0359 28.4388C17.4352 29.0404 17.9602 29.6693 18.1516 29.7787C18.3376 29.8881 18.6001 29.8607 18.7587 29.724C18.961 29.549 19.0978 28.8161 19.1743 27.4653C19.2509 26.1801 19.1798 24.687 19.0048 23.8339C18.9009 23.3362 18.4251 21.5806 18.1899 20.8259C18.1297 20.6345 18.086 20.4649 18.0969 20.4595C18.1079 20.4485 18.3977 20.7931 18.7368 21.2197C20.115 22.9479 21.351 24.255 22.1659 24.8347C22.9316 25.3816 24.0035 25.8519 25.0863 26.1035C25.4692 26.191 25.7317 26.1363 25.863 25.9394C25.9942 25.7426 25.9723 25.5457 25.759 24.9277C25.0481 22.8877 23.7628 21.1103 21.5643 19.1196C21.0283 18.6383 20.5908 18.239 20.5908 18.2281C20.5908 18.2226 21.0283 18.3703 21.5643 18.5672C23.9269 19.4204 25.3434 19.7266 27.1372 19.7704C28.674 19.8141 29.6475 19.6719 29.8827 19.3657C30.0686 19.1305 30.0358 18.8953 29.7678 18.6C29.2045 17.9929 28.0615 17.2163 26.8638 16.6421C25.6661 16.0624 24.6488 15.7288 23.0409 15.3897L21.6901 15.1053L22.33 14.9795C23.4183 14.7662 24.6926 14.4435 25.4582 14.181C27.006 13.6505 28.8709 12.6059 29.7569 11.7747C29.9647 11.5778 29.9975 11.359 29.8608 11.0965C29.7678 10.9105 29.6202 10.8504 28.9858 10.741C26.8474 10.3636 24.6324 10.5551 21.969 11.3426C21.5041 11.4793 21.1158 11.5778 21.1049 11.5668C21.0885 11.5559 21.2471 11.3973 21.4494 11.2223C22.1659 10.6043 23.4511 9.30812 23.9324 8.72293C24.8184 7.64007 25.5895 6.37125 26.027 5.26104C26.2786 4.61569 26.2786 4.36412 26.0106 4.16176C25.6551 3.88831 23.9543 4.55553 22.4448 5.56184C21.433 6.23453 20.6783 6.87987 19.5626 8.02837C19.0376 8.57527 18.6001 9.00732 18.5891 8.99639C18.5782 8.98545 18.7532 8.42761 18.9774 7.75492C19.6611 5.73138 19.8634 4.48444 19.8087 2.54293C19.754 0.645178 19.6283 0.207655 19.1415 0.207655C18.8571 0.207655 18.7313 0.300629 18.2883 0.853001C16.9867 2.46636 16.1937 4.15629 15.4445 6.89628C15.2476 7.64007 15.1382 7.9518 15.1108 7.8807C15.089 7.82601 14.996 7.38849 14.8975 6.90722C14.5749 5.2501 14.0498 3.69143 13.4209 2.50465C13.06 1.83196 12.3052 0.699868 11.9661 0.327974C11.6708 0.00530103 11.4302 -0.0767344 11.1786 0.0709294Z" fill="#F7F7F7"></path></svg> 