<?xml version="1.0" encoding="UTF-8"?> <svg xmlns="http://www.w3.org/2000/svg" width="47" height="47" viewBox="0 0 47 47" fill="none"><path d="M21.2066 0.0574373C16.7529 0.507398 12.5104 2.20623 8.99334 4.93354C7.91895 5.76918 6.09156 7.56902 5.20082 8.67097C2.6388 11.8482 0.967517 15.5581 0.251253 19.6812C-0.0150497 21.2607 -0.0885127 24.741 0.122693 26.348C0.517557 29.3049 1.243 31.6832 2.53779 34.2269C3.62137 36.3665 4.8886 38.1204 6.65171 39.9294C10.4534 43.8322 15.1275 46.1554 20.6556 46.8809C22.2534 47.0829 25.7337 47.0186 27.3223 46.7431C29.7283 46.3299 31.776 45.6687 33.9248 44.6127C36.2022 43.4924 38.0388 42.1976 39.9304 40.3519C43.576 36.7981 45.8717 32.4179 46.7441 27.3214C47.0196 25.7236 47.0839 22.3534 46.8819 20.6546C46.037 13.7583 42.2261 7.62412 36.4042 3.79486C33.383 1.81137 30.0221 0.580861 26.4408 0.1309C25.4031 0.00234014 22.1616 -0.0435742 21.2066 0.0574373ZM24.4665 11.8391C27.3315 12.1145 29.866 13.3175 31.7944 15.3194C33.1076 16.6876 33.9616 18.0742 34.5125 19.7639C35.2839 22.1055 35.2839 24.7134 34.5217 27.0092C33.1535 31.1139 29.664 34.0983 25.3939 34.8421C23.3094 35.2003 20.7841 34.8881 18.92 34.0524L18.3415 33.7861L15.4397 34.4748C13.8511 34.8513 12.4553 35.1635 12.3451 35.1635C11.8584 35.1635 11.8584 35.0809 12.5196 31.8761C12.8501 30.2232 13.1256 28.809 13.1256 28.7264C13.1256 28.6437 13.0063 28.3131 12.8593 27.9917C12.0237 26.1368 11.7115 23.5197 12.0696 21.426C12.9603 16.3478 17.2028 12.39 22.3544 11.8482C23.3737 11.738 23.438 11.738 24.4665 11.8391Z" fill="white"></path><path d="M22.3547 14.3274C20.0223 14.6396 17.8184 15.8701 16.3858 17.6516C14.8707 19.5341 14.1085 22.1788 14.4115 24.502C14.5493 25.604 14.7605 26.3294 15.2839 27.4864L15.7063 28.4323L15.3298 30.2046C15.1278 31.178 14.9809 32.0044 15.0084 32.032C15.036 32.0503 15.8532 31.885 16.8266 31.6555L18.5897 31.2331L19.3519 31.5912C21.9966 32.8217 24.6504 32.8952 27.2033 31.8024C29.2602 30.9208 31.0509 29.121 31.9233 27.0549C32.465 25.7784 32.6303 24.9244 32.6303 23.4093C32.6303 22.3165 32.5936 21.9308 32.4191 21.2605C31.3815 17.2292 28.0481 14.4835 23.9525 14.2815C23.4291 14.2631 22.7128 14.2815 22.3547 14.3274ZM20.1692 18.1016C20.3712 18.3311 21.3905 20.5718 21.3905 20.8013C21.3905 20.985 21.2436 21.2605 20.8671 21.7472C20.4447 22.3073 20.463 22.6103 20.9681 23.2807C21.1885 23.5837 21.6476 24.0888 21.9966 24.4194C23.3373 25.6958 24.3382 26.3478 24.9443 26.3478C25.284 26.3478 25.3851 26.2927 25.8442 25.8427C26.2391 25.457 26.4227 25.3377 26.6339 25.3377C26.9921 25.3377 29.0674 25.9345 29.3521 26.1182C29.9489 26.5131 29.7745 27.1467 28.8195 28.1109C28.1032 28.8271 27.644 29.0108 26.5421 29.0108C24.577 29.0108 22.3823 27.817 20.1967 25.558C18.6724 23.9786 17.9561 22.7297 17.7174 21.2513C17.5796 20.4065 17.7174 19.8096 18.1857 19.0933C18.9203 18.0005 19.71 17.6057 20.1692 18.1016Z" fill="white"></path></svg> 