<?xml version="1.0" encoding="UTF-8"?> <svg xmlns="http://www.w3.org/2000/svg" xmlns:xlink="http://www.w3.org/1999/xlink" width="500" zoomAndPan="magnify" viewBox="0 0 375 374.999991" height="500" preserveAspectRatio="xMidYMid meet" version="1.0"><defs><g></g></defs><g fill="#042164" fill-opacity="1"><g transform="translate(211.893656, 333.982211)"><g><path d="M -15.59375 0.46875 C -11.707031 0.238281 -8.582031 1.128906 -6.21875 3.140625 C -3.851562 5.160156 -2.546875 8.3125 -2.296875 12.59375 L -1.3125 29.15625 L -7.6875 29.546875 L -8.65625 13.15625 C -8.800781 10.78125 -9.457031 9.019531 -10.625 7.875 C -11.800781 6.738281 -13.367188 6.226562 -15.328125 6.34375 C -17.285156 6.457031 -18.78125 7.128906 -19.8125 8.359375 C -20.851562 9.585938 -21.304688 11.363281 -21.171875 13.6875 L -20.1875 30.28125 L -26.5625 30.65625 L -27.53125 14.3125 C -27.664062 12.09375 -27.484375 10.148438 -26.984375 8.484375 C -26.484375 6.828125 -25.710938 5.421875 -24.671875 4.265625 C -23.640625 3.109375 -22.351562 2.210938 -20.8125 1.578125 C -19.269531 0.953125 -17.53125 0.582031 -15.59375 0.46875 Z M -15.59375 0.46875 "></path></g></g></g><g fill="#c01530" fill-opacity="1"><g transform="translate(163.036714, 333.912275)"><g><path d="M -11.03125 27.078125 L -17.203125 25.390625 L -13.84375 13.15625 L -28.484375 22.296875 L -36.03125 20.234375 L -21.34375 11.484375 L -28.84375 -7.890625 L -21.4375 -5.875 L -16.03125 8.421875 L -11.875 5.953125 L -9.53125 -2.609375 L -3.359375 -0.921875 Z M -11.03125 27.078125 "></path></g></g></g><g fill="#c01530" fill-opacity="1"><g transform="translate(117.393502, 317.648517)"><g></g></g></g><g fill="#042164" fill-opacity="1"><g transform="translate(91.536755, 301.005952)"><g><path d="M -30.453125 10.40625 L -34.515625 6.125 L -21.890625 -23.03125 L -17.28125 -18.1875 L -20.171875 -11.78125 L -11.71875 -2.875 L -5.171875 -5.453125 L -0.6875 -0.71875 Z M -22.703125 -6.234375 L -26.859375 3.046875 L -17.375 -0.640625 Z M -22.703125 -6.234375 "></path></g></g></g><g fill="#042164" fill-opacity="1"><g transform="translate(59.279969, 262.533176)"><g><path d="M -27.84375 8.9375 L -33.375 -3.125 C -34.914062 -6.46875 -35.203125 -9.441406 -34.234375 -12.046875 C -33.421875 -14.242188 -31.757812 -15.921875 -29.25 -17.078125 L -29.171875 -17.109375 C -27.035156 -18.085938 -25.050781 -18.363281 -23.21875 -17.9375 C -21.394531 -17.519531 -19.785156 -16.609375 -18.390625 -15.203125 L -11.921875 -25.96875 L -8.796875 -19.1875 L -14.65625 -9.65625 L -12.578125 -5.09375 L -4.125 -8.96875 L -1.453125 -3.171875 Z M -20.390625 -8.625 C -21.046875 -10.050781 -21.890625 -10.992188 -22.921875 -11.453125 C -23.953125 -11.910156 -25.035156 -11.878906 -26.171875 -11.359375 L -26.25 -11.328125 C -27.5 -10.742188 -28.25 -9.90625 -28.5 -8.8125 C -28.757812 -7.726562 -28.5625 -6.46875 -27.90625 -5.03125 L -25.265625 0.734375 L -17.703125 -2.734375 Z M -20.390625 -8.625 "></path></g></g></g><g fill="#042164" fill-opacity="1"><g transform="translate(42.032992, 218.226155)"><g><path d="M -1.328125 -17.046875 C -1.097656 -14.921875 -1.269531 -12.910156 -1.84375 -11.015625 C -2.425781 -9.128906 -3.3125 -7.453125 -4.5 -5.984375 C -5.6875 -4.515625 -7.148438 -3.3125 -8.890625 -2.375 C -10.628906 -1.445312 -12.53125 -0.867188 -14.59375 -0.640625 L -14.671875 -0.640625 C -16.734375 -0.421875 -18.703125 -0.582031 -20.578125 -1.125 C -22.460938 -1.675781 -24.15625 -2.535156 -25.65625 -3.703125 C -27.164062 -4.878906 -28.410156 -6.347656 -29.390625 -8.109375 C -30.367188 -9.867188 -30.972656 -11.863281 -31.203125 -14.09375 C -31.347656 -15.4375 -31.367188 -16.675781 -31.265625 -17.8125 C -31.171875 -18.957031 -30.984375 -20.003906 -30.703125 -20.953125 C -30.421875 -21.898438 -30.039062 -22.785156 -29.5625 -23.609375 C -29.09375 -24.441406 -28.570312 -25.222656 -28 -25.953125 L -22.90625 -22.40625 C -23.789062 -21.175781 -24.457031 -19.945312 -24.90625 -18.71875 C -25.351562 -17.488281 -25.5 -16.144531 -25.34375 -14.6875 C -25.21875 -13.46875 -24.863281 -12.363281 -24.28125 -11.375 C -23.707031 -10.394531 -22.96875 -9.578125 -22.0625 -8.921875 C -21.164062 -8.273438 -20.148438 -7.804688 -19.015625 -7.515625 C -17.890625 -7.222656 -16.710938 -7.140625 -15.484375 -7.265625 L -15.390625 -7.28125 C -14.148438 -7.414062 -13 -7.742188 -11.9375 -8.265625 C -10.882812 -8.796875 -9.984375 -9.46875 -9.234375 -10.28125 C -8.484375 -11.101562 -7.921875 -12.054688 -7.546875 -13.140625 C -7.179688 -14.222656 -7.066406 -15.382812 -7.203125 -16.625 C -7.378906 -18.269531 -7.832031 -19.628906 -8.5625 -20.703125 C -9.289062 -21.785156 -10.238281 -22.835938 -11.40625 -23.859375 L -7.75 -28.328125 C -6.875 -27.671875 -6.078125 -26.976562 -5.359375 -26.25 C -4.640625 -25.519531 -4 -24.707031 -3.4375 -23.8125 C -2.882812 -22.914062 -2.429688 -21.910156 -2.078125 -20.796875 C -1.722656 -19.691406 -1.472656 -18.441406 -1.328125 -17.046875 Z M -1.328125 -17.046875 "></path></g></g></g><g fill="#042164" fill-opacity="1"><g transform="translate(39.698147, 170.174098)"><g><path d="M -27.5625 -9.765625 L -26.15625 -16 L -14.953125 -13.484375 L -12.375 -24.96875 L -23.578125 -27.484375 L -22.1875 -33.71875 L 6.140625 -27.359375 L 4.75 -21.125 L -6.625 -23.671875 L -9.203125 -12.1875 L 2.171875 -9.640625 L 0.765625 -3.40625 Z M -27.5625 -9.765625 "></path></g></g></g><g fill="#042164" fill-opacity="1"><g transform="translate(54.158874, 122.756003)"><g><path d="M -23.71875 -17.1875 L -20.671875 -22.78125 L 4.84375 -8.921875 L 1.796875 -3.328125 Z M -23.71875 -17.1875 "></path></g></g></g><g fill="#042164" fill-opacity="1"><g transform="translate(70.961756, 95.096408)"><g><path d="M -9.71875 -23.375 L -15.8125 -16.953125 L -20.078125 -21 L -3.515625 -38.453125 L 0.75 -34.40625 L -5.328125 -28 L 11.453125 -12.0625 L 7.0625 -7.4375 Z M -9.71875 -23.375 "></path></g></g></g><g fill="#042164" fill-opacity="1"><g transform="translate(103.588108, 64.585573)"><g><path d="M -11.03125 -27.078125 L 8.125 -37.703125 L 10.875 -32.734375 L -2.734375 -25.1875 L 0.125 -20.046875 L 12.09375 -26.6875 L 14.84375 -21.703125 L 2.875 -15.0625 L 5.828125 -9.734375 L 19.609375 -17.390625 L 22.375 -12.421875 L 3.046875 -1.6875 Z M -11.03125 -27.078125 "></path></g></g></g><g fill="#042164" fill-opacity="1"><g transform="translate(144.520958, 44.829026)"><g><path d="M 16.875 -2.75 C 14.78125 -2.34375 12.765625 -2.347656 10.828125 -2.765625 C 8.890625 -3.179688 7.140625 -3.921875 5.578125 -4.984375 C 4.023438 -6.046875 2.707031 -7.40625 1.625 -9.0625 C 0.550781 -10.71875 -0.179688 -12.5625 -0.578125 -14.59375 L -0.59375 -14.671875 C -0.976562 -16.710938 -0.972656 -18.691406 -0.578125 -20.609375 C -0.191406 -22.523438 0.519531 -24.28125 1.5625 -25.875 C 2.601562 -27.476562 3.960938 -28.835938 5.640625 -29.953125 C 7.316406 -31.078125 9.253906 -31.851562 11.453125 -32.28125 C 12.785156 -32.53125 14.019531 -32.65625 15.15625 -32.65625 C 16.300781 -32.65625 17.359375 -32.550781 18.328125 -32.34375 C 19.296875 -32.132812 20.210938 -31.828125 21.078125 -31.421875 C 21.941406 -31.023438 22.765625 -30.566406 23.546875 -30.046875 L 20.421875 -24.6875 C 19.117188 -25.46875 17.835938 -26.03125 16.578125 -26.375 C 15.316406 -26.726562 13.960938 -26.765625 12.515625 -26.484375 C 11.316406 -26.253906 10.253906 -25.804688 9.328125 -25.140625 C 8.398438 -24.484375 7.644531 -23.675781 7.0625 -22.71875 C 6.488281 -21.769531 6.101562 -20.71875 5.90625 -19.5625 C 5.707031 -18.414062 5.722656 -17.234375 5.953125 -16.015625 L 5.96875 -15.921875 C 6.207031 -14.703125 6.632812 -13.585938 7.25 -12.578125 C 7.863281 -11.566406 8.609375 -10.722656 9.484375 -10.046875 C 10.367188 -9.378906 11.363281 -8.90625 12.46875 -8.625 C 13.582031 -8.351562 14.75 -8.332031 15.96875 -8.5625 C 17.59375 -8.875 18.910156 -9.4375 19.921875 -10.25 C 20.941406 -11.070312 21.910156 -12.109375 22.828125 -13.359375 L 27.59375 -10.09375 C 27.007812 -9.15625 26.382812 -8.296875 25.71875 -7.515625 C 25.050781 -6.742188 24.289062 -6.039062 23.4375 -5.40625 C 22.59375 -4.78125 21.632812 -4.242188 20.5625 -3.796875 C 19.488281 -3.359375 18.257812 -3.007812 16.875 -2.75 Z M 16.875 -2.75 "></path></g></g></g><g fill="#042164" fill-opacity="1"><g transform="translate(192.387256, 38.744195)"><g><path d="M 13.015625 -21.703125 L 4.234375 -22.796875 L 4.96875 -28.640625 L 28.859375 -25.671875 L 28.125 -19.828125 L 19.359375 -20.921875 L 16.515625 2.046875 L 10.171875 1.265625 Z M 13.015625 -21.703125 "></path></g></g></g><g fill="#042164" fill-opacity="1"><g transform="translate(236.339622, 46.938173)"><g><path d="M 12.421875 6.078125 C 10.398438 5.171875 8.578125 3.929688 6.953125 2.359375 C 5.328125 0.785156 4.046875 -1.078125 3.109375 -3.234375 L 8.40625 -5.796875 C 9.175781 -4.265625 10.066406 -2.921875 11.078125 -1.765625 C 12.085938 -0.617188 13.347656 0.289062 14.859375 0.96875 C 16.066406 1.519531 17.101562 1.726562 17.96875 1.59375 C 18.832031 1.457031 19.441406 0.992188 19.796875 0.203125 L 19.828125 0.140625 C 20.003906 -0.242188 20.085938 -0.609375 20.078125 -0.953125 C 20.078125 -1.304688 19.9375 -1.695312 19.65625 -2.125 C 19.382812 -2.5625 18.957031 -3.0625 18.375 -3.625 C 17.789062 -4.1875 17.003906 -4.851562 16.015625 -5.625 C 14.835938 -6.5625 13.796875 -7.476562 12.890625 -8.375 C 11.992188 -9.269531 11.300781 -10.1875 10.8125 -11.125 C 10.320312 -12.0625 10.066406 -13.0625 10.046875 -14.125 C 10.023438 -15.1875 10.316406 -16.378906 10.921875 -17.703125 L 10.953125 -17.765625 C 11.492188 -18.972656 12.207031 -19.960938 13.09375 -20.734375 C 13.976562 -21.503906 14.988281 -22.054688 16.125 -22.390625 C 17.269531 -22.722656 18.492188 -22.820312 19.796875 -22.6875 C 21.109375 -22.550781 22.441406 -22.175781 23.796875 -21.5625 C 25.742188 -20.6875 27.398438 -19.59375 28.765625 -18.28125 C 30.128906 -16.96875 31.25 -15.460938 32.125 -13.765625 L 27.109375 -10.734375 C 26.296875 -12.078125 25.425781 -13.238281 24.5 -14.21875 C 23.582031 -15.195312 22.554688 -15.941406 21.421875 -16.453125 C 20.285156 -16.960938 19.332031 -17.125 18.5625 -16.9375 C 17.789062 -16.757812 17.257812 -16.34375 16.96875 -15.6875 L 16.9375 -15.625 C 16.738281 -15.195312 16.648438 -14.78125 16.671875 -14.375 C 16.703125 -13.976562 16.875 -13.554688 17.1875 -13.109375 C 17.5 -12.671875 17.972656 -12.171875 18.609375 -11.609375 C 19.253906 -11.046875 20.070312 -10.359375 21.0625 -9.546875 C 22.25 -8.597656 23.257812 -7.664062 24.09375 -6.75 C 24.9375 -5.832031 25.578125 -4.898438 26.015625 -3.953125 C 26.460938 -3.015625 26.679688 -2.046875 26.671875 -1.046875 C 26.660156 -0.0546875 26.394531 1.015625 25.875 2.171875 L 25.84375 2.25 C 25.25 3.5625 24.484375 4.617188 23.546875 5.421875 C 22.609375 6.234375 21.550781 6.789062 20.375 7.09375 C 19.207031 7.394531 17.945312 7.460938 16.59375 7.296875 C 15.238281 7.128906 13.847656 6.722656 12.421875 6.078125 Z M 12.421875 6.078125 "></path></g></g></g><g fill="#042164" fill-opacity="1"><g transform="translate(275.806561, 68.353741)"><g></g></g></g><g fill="#c01530" fill-opacity="1"><g transform="translate(298.968309, 88.589499)"><g><path d="M 9.671875 14.546875 C 8.359375 12.691406 7.46875 10.785156 7 8.828125 C 6.539062 6.878906 6.460938 4.972656 6.765625 3.109375 C 7.078125 1.253906 7.765625 -0.503906 8.828125 -2.171875 C 9.890625 -3.835938 11.300781 -5.289062 13.0625 -6.53125 L 13.125 -6.578125 C 14.8125 -7.773438 16.617188 -8.582031 18.546875 -9 C 20.472656 -9.425781 22.382812 -9.476562 24.28125 -9.15625 C 26.175781 -8.84375 27.976562 -8.15625 29.6875 -7.09375 C 31.40625 -6.03125 32.898438 -4.597656 34.171875 -2.796875 C 34.921875 -1.734375 35.53125 -0.722656 36 0.234375 C 36.46875 1.203125 36.832031 2.15625 37.09375 3.09375 C 37.351562 4.039062 37.507812 4.984375 37.5625 5.921875 C 37.613281 6.867188 37.585938 7.832031 37.484375 8.8125 L 31.21875 8.328125 C 31.289062 7.609375 31.3125 6.914062 31.28125 6.25 C 31.25 5.582031 31.164062 4.929688 31.03125 4.296875 C 30.894531 3.671875 30.679688 3.035156 30.390625 2.390625 C 30.097656 1.753906 29.71875 1.097656 29.25 0.421875 C 28.570312 -0.523438 27.742188 -1.269531 26.765625 -1.8125 C 25.785156 -2.363281 24.742188 -2.710938 23.640625 -2.859375 C 22.535156 -3.015625 21.414062 -2.953125 20.28125 -2.671875 C 19.144531 -2.390625 18.070312 -1.890625 17.0625 -1.171875 L 16.984375 -1.125 C 15.898438 -0.363281 15.019531 0.507812 14.34375 1.5 C 13.675781 2.5 13.234375 3.5625 13.015625 4.6875 C 12.796875 5.820312 12.804688 6.953125 13.046875 8.078125 C 13.285156 9.210938 13.78125 10.3125 14.53125 11.375 C 15.90625 13.3125 17.535156 14.613281 19.421875 15.28125 L 22.828125 12.875 L 19.109375 7.625 L 23.609375 4.453125 L 30.890625 14.765625 L 20.59375 22.03125 C 18.6875 21.539062 16.769531 20.710938 14.84375 19.546875 C 12.925781 18.378906 11.203125 16.710938 9.671875 14.546875 Z M 9.671875 14.546875 "></path></g></g></g><g fill="#c01530" fill-opacity="1"><g transform="translate(325.09219, 131.345311)"><g><path d="M 28.765625 -5.234375 L 30.640625 0.875 L 8.453125 7.71875 L 12.71875 21.546875 L 7.171875 23.265625 L 1.03125 3.328125 Z M 28.765625 -5.234375 "></path></g></g></g><g fill="#c01530" fill-opacity="1"><g transform="translate(335.845652, 173.289578)"><g><path d="M -0.9375 17.578125 C -0.882812 15.335938 -0.441406 13.285156 0.390625 11.421875 C 1.222656 9.566406 2.328125 7.96875 3.703125 6.625 C 5.085938 5.289062 6.691406 4.265625 8.515625 3.546875 C 10.347656 2.835938 12.300781 2.507812 14.375 2.5625 L 14.453125 2.5625 C 16.523438 2.613281 18.457031 3.046875 20.25 3.859375 C 22.050781 4.679688 23.613281 5.789062 24.9375 7.1875 C 26.269531 8.59375 27.304688 10.253906 28.046875 12.171875 C 28.785156 14.085938 29.128906 16.164062 29.078125 18.40625 C 29.015625 20.644531 28.566406 22.691406 27.734375 24.546875 C 26.898438 26.398438 25.796875 27.992188 24.421875 29.328125 C 23.054688 30.671875 21.457031 31.695312 19.625 32.40625 C 17.800781 33.125 15.851562 33.457031 13.78125 33.40625 L 13.6875 33.40625 C 11.613281 33.351562 9.679688 32.914062 7.890625 32.09375 C 6.097656 31.28125 4.53125 30.171875 3.1875 28.765625 C 1.851562 27.367188 0.816406 25.710938 0.078125 23.796875 C -0.648438 21.890625 -0.988281 19.816406 -0.9375 17.578125 Z M 4.953125 17.8125 C 4.921875 19.082031 5.125 20.257812 5.5625 21.34375 C 6.007812 22.4375 6.640625 23.367188 7.453125 24.140625 C 8.265625 24.921875 9.207031 25.539062 10.28125 26 C 11.363281 26.457031 12.53125 26.703125 13.78125 26.734375 L 13.859375 26.734375 C 15.109375 26.765625 16.289062 26.578125 17.40625 26.171875 C 18.519531 25.765625 19.5 25.179688 20.34375 24.421875 C 21.195312 23.660156 21.878906 22.75 22.390625 21.6875 C 22.898438 20.625 23.171875 19.457031 23.203125 18.1875 C 23.234375 16.882812 23.023438 15.691406 22.578125 14.609375 C 22.140625 13.535156 21.515625 12.609375 20.703125 11.828125 C 19.898438 11.046875 18.957031 10.425781 17.875 9.96875 C 16.789062 9.507812 15.628906 9.265625 14.390625 9.234375 L 14.296875 9.234375 C 13.054688 9.203125 11.875 9.382812 10.75 9.78125 C 9.632812 10.1875 8.648438 10.773438 7.796875 11.546875 C 6.953125 12.316406 6.273438 13.226562 5.765625 14.28125 C 5.253906 15.332031 4.984375 16.507812 4.953125 17.8125 Z M 4.953125 17.8125 "></path></g></g></g><g fill="#c01530" fill-opacity="1"><g transform="translate(331.153994, 225.655972)"><g><path d="M 25.90625 13.5625 L 21.125 26.15625 C 19.9375 29.289062 18.242188 31.351562 16.046875 32.34375 C 14.328125 33.113281 12.554688 33.148438 10.734375 32.453125 L 10.65625 32.4375 C 9.875 32.132812 9.222656 31.769531 8.703125 31.34375 C 8.179688 30.925781 7.738281 30.46875 7.375 29.96875 C 7.019531 29.46875 6.742188 28.929688 6.546875 28.359375 C 6.347656 27.796875 6.210938 27.226562 6.140625 26.65625 C 4.953125 28 3.671875 28.925781 2.296875 29.4375 C 0.929688 29.957031 -0.648438 29.878906 -2.453125 29.203125 L -2.53125 29.171875 C -3.78125 28.691406 -4.773438 28.035156 -5.515625 27.203125 C -6.265625 26.378906 -6.78125 25.398438 -7.0625 24.265625 C -7.34375 23.140625 -7.398438 21.890625 -7.234375 20.515625 C -7.078125 19.148438 -6.707031 17.703125 -6.125 16.171875 L -1.234375 3.265625 Z M 11.96875 26.140625 C 12.875 26.484375 13.691406 26.410156 14.421875 25.921875 C 15.160156 25.429688 15.769531 24.550781 16.25 23.28125 L 18.484375 17.390625 L 12.734375 15.203125 L 10.640625 20.703125 C 10.140625 22.023438 9.96875 23.160156 10.125 24.109375 C 10.289062 25.054688 10.878906 25.722656 11.890625 26.109375 Z M 0.53125 23.546875 C 1.425781 23.878906 2.269531 23.796875 3.0625 23.296875 C 3.863281 22.804688 4.554688 21.785156 5.140625 20.234375 L 7.765625 13.328125 L 1.796875 11.0625 L -0.890625 18.15625 C -1.398438 19.476562 -1.554688 20.601562 -1.359375 21.53125 C -1.160156 22.46875 -0.554688 23.125 0.453125 23.5 Z M 0.53125 23.546875 "></path></g></g></g><g fill="#c01530" fill-opacity="1"><g transform="translate(311.868639, 269.00712)"><g><path d="M 13.9375 29 L 10.1875 33.53125 L -20.28125 24.46875 L -16.015625 19.328125 L -9.296875 21.4375 L -1.46875 11.96875 L -4.796875 5.78125 L -0.640625 0.765625 Z M -3.5 23.265625 L 6.203125 26.3125 L 1.421875 17.328125 Z M -3.5 23.265625 "></path></g></g></g><g fill="#c01530" fill-opacity="1"><g transform="translate(277.238599, 305.542809)"><g><path d="M 12.53125 26.421875 L 7.125 29.828125 L -5.265625 10.1875 L -17.5 17.90625 L -20.59375 12.984375 L -2.953125 1.859375 Z M 12.53125 26.421875 "></path></g></g></g><g fill="#c01530" fill-opacity="1"><g transform="translate(238.352169, 326.292388)"><g></g></g></g><g fill="#c01530" fill-opacity="1"><g transform="translate(207.80822, 333.8985)"><g></g></g></g><g fill="#042164" fill-opacity="1"><g transform="translate(176.345947, 334.876004)"><g></g></g></g></svg> 